PathFileType	4	(X/Y/Z)	./resultDataOpenSim/trcMotMarkerGrf/sub09/qtm-05-01.trc
DataRate	CameraRate	NumFrames	NumMarkers	Units	OrigDataRate	OrigDataStartFrame	OrigNumFrames
250.000000	250.000000	12	24	m	250.000000	196	521
Frame#	Time	L.Toe.Tip			R.Toe.Tip			L.Ankle.Lat			R.Ankle.Lat			L.Ankle.Med			R.Ankle.Med			L.Heel			R.Heel			L.Knee.Lat			R.Knee.Lat			L.Knee.Med			R.Knee.Med			L.Thigh.Upper			R.Thigh.Upper			L.ASIS			R.ASIS			V.Sacral			L.Acromium			R.Acromium			C7			L.Elbow			R.Elbow			L.Wrist.Lat			R.Wrist.Lat
		X1	Y1	Z1	X2	Y2	Z2	X3	Y3	Z3	X4	Y4	Z4	X5	Y5	Z5	X6	Y6	Z6	X7	Y7	Z7	X8	Y8	Z8	X9	Y9	Z9	X10	Y10	Z10	X11	Y11	Z11	X12	Y12	Z12	X13	Y13	Z13	X14	Y14	Z14	X15	Y15	Z15	X16	Y16	Z16	X17	Y17	Z17	X18	Y18	Z18	X19	Y19	Z19	X20	Y20	Z20	X21	Y21	Z21	X22	Y22	Z22	X23	Y23	Z23	X24	Y24	Z24

196	0.78	0.12015629	-0.059291753	0.058835346	-0.61220102	0.057687305	0.10601425	-0.022989982	-0.027222798	7.011907e-05	-0.66715801	0.19418315	0.15495139	-0.014937476	-0.0083924446	0.097109359	-0.61439304	0.19573052	0.070616835	-0.098694145	-0.062931049	0.035096937	-0.70867421	0.23789584	0.091569579	0.024533334	0.38516409	-0.055691812	-0.26082514	0.36940151	0.24547717	0.0090756726	0.39107646	0.068642269	-0.24288229	0.34149762	0.11953669	-0.15313257	0.76687647	-0.11576818	-0.22931846	0.76123065	0.25473145	-0.087522405	0.85222344	-0.042391179	-0.11368093	0.84258662	0.19776314	-0.26893172	0.90390848	0.058503816	-0.1249289	1.3028794	-0.1002547	-0.17441751	1.3152373	0.23013518	-0.21649633	1.355515	0.05909625	-0.28068049	0.97564731	-0.1549342	-0.29260383	0.95165708	0.29757627	-0.2076259	0.73208152	-0.21671899	-0.04354818	0.82827603	0.29475631
197	0.784	0.12009368	-0.059429751	0.058957548	-0.60747182	0.059586669	0.10719421	-0.022942138	-0.027448656	-6.6992503e-05	-0.65629175	0.19903881	0.15654826	-0.015183806	-0.0084952652	0.0971555	-0.60378515	0.19910688	0.072322159	-0.098763397	-0.062912471	0.034893148	-0.69678985	0.24424463	0.094022633	0.028891852	0.38353815	-0.056152632	-0.24904243	0.36821368	0.2464763	0.015288937	0.3899246	0.06810253	-0.23158601	0.34031199	0.12053687	-0.14839233	0.76672471	-0.11600081	-0.22297695	0.76034516	0.25461257	-0.081543684	0.85267501	-0.043105697	-0.10769429	0.84181669	0.19708967	-0.2691504	0.9063652	0.063496467	-0.11734866	1.302549	-0.10016703	-0.16696338	1.314822	0.23011698	-0.20945991	1.3550862	0.059007096	-0.27214542	0.97497286	-0.15515383	-0.28702561	0.95198399	0.29704277	-0.19857423	0.73134376	-0.2164764	-0.039980442	0.82481811	0.29548097
198	0.788	0.12009712	-0.059547931	0.059046439	-0.60207785	0.061515206	0.1084134	-0.022750315	-0.02771249	-8.6411016e-05	-0.64513262	0.20365971	0.15803452	-0.015121081	-0.0085917982	0.097228383	-0.59285413	0.20249449	0.073941503	-0.098826165	-0.062903969	0.034926737	-0.68464878	0.25041096	0.096457911	0.032880736	0.38178562	-0.056488508	-0.23706281	0.36715835	0.24738299	0.021054674	0.38833802	0.067604862	-0.22031717	0.33945433	0.1214318	-0.14347633	0.76650503	-0.11615752	-0.21658238	0.75967701	0.25438617	-0.075569019	0.85308892	-0.043724384	-0.10178434	0.84125248	0.19650079	-0.27191864	0.90974625	0.069360834	-0.10983201	1.3023519	-0.10005431	-0.15950058	1.3145376	0.23012764	-0.20251031	1.3548003	0.058962279	-0.26366956	0.97440923	-0.15535929	-0.28132607	0.95251651	0.29659907	-0.18945747	0.73073957	-0.21621531	-0.036505049	0.82148532	0.29622451
199	0.792	0.12017798	-0.059646417	0.059109984	-0.59596373	0.063536004	0.10975109	-0.022437058	-0.027969045	-8.6646057e-06	-0.63385945	0.20793255	0.15968562	-0.014780363	-0.0086913143	0.097350009	-0.58174533	0.2058721	0.075517484	-0.098844804	-0.062809674	0.035105874	-0.67228866	0.25638841	0.098865673	0.036560967	0.38010747	-0.056827229	-0.22490308	0.36622462	0.24812998	0.026387875	0.38647397	0.067165524	-0.20901539	0.33897649	0.12224783	-0.13827854	0.76625357	-0.1162943	-0.21014587	0.75915291	0.25407874	-0.069614078	0.8534308	-0.044266516	-0.095962403	0.84088266	0.19599821	-0.27261564	0.91201665	0.073112661	-0.10236928	1.3022756	-0.099921366	-0.15207642	1.3143819	0.23016698	-0.19559338	1.3546481	0.058911065	-0.25523463	0.9739447	-0.15564691	-0.27550997	0.95319458	0.29622868	-0.18030383	0.73026091	-0.21594355	-0.033118078	0.81828095	0.29698617
200	0.796	0.12029341	-0.059723681	0.059151082	-0.58925225	0.065728166	0.11145997	-0.022092647	-0.028189145	9.917708e-05	-0.62252404	0.21188016	0.16164535	-0.014323986	-0.0088008304	0.097514724	-0.57048624	0.20923073	0.077056781	-0.098811041	-0.062612179	0.035276467	-0.65968086	0.26213199	0.10120786	0.039964477	0.37859463	-0.05721806	-0.21259918	0.3654143	0.24865707	0.031276724	0.38451488	0.066781857	-0.19765622	0.33881392	0.12293749	-0.13276258	0.76602148	-0.11647839	-0.20364254	0.75869095	0.25368957	-0.063693172	0.85368615	-0.044740742	-0.090227558	0.84069841	0.19558173	-0.26703038	0.91172068	0.0720817	-0.094961696	1.3023083	-0.0997736	-0.14473498	1.3143568	0.23022839	-0.18869774	1.3546111	0.058828309	-0.24686182	0.97357456	-0.15599138	-0.26961089	0.95398423	0.29592297	-0.17106857	0.72991272	-0.21563064	-0.029827224	0.81520105	0.29776577
201	0.8	0.12038642	-0.059781717	0.059175045	-0.58192866	0.06816644	0.11375568	-0.02179582	-0.028378117	0.00017823777	-0.61108422	0.21564227	0.16370352	-0.013918541	-0.0089085471	0.097682562	-0.55901239	0.2126082	0.078515251	-0.098766999	-0.062380147	0.035373559	-0.64690707	0.26756833	0.10344149	0.04310395	0.37724623	-0.057580881	-0.20020179	0.36474483	0.24894969	0.035712494	0.38264743	0.066456467	-0.18613078	0.33882205	0.12339489	-0.12696871	0.76586699	-0.11673424	-0.19698107	0.7582529	0.25317652	-0.057815511	0.85385325	-0.045151749	-0.084573706	0.84069706	0.19524591	-0.25526562	0.90917193	0.066484483	-0.087611235	1.3024437	-0.099617179	-0.13750399	1.3144659	0.23030106	-0.18182038	1.3546832	0.058707748	-0.23857737	0.9732979	-0.15634943	-0.26374305	0.95487954	0.29569501	-0.16165977	0.72971251	-0.21522178	-0.026635457	0.81224351	0.29856421
202	0.804	0.12042536	-0.059828851	0.059197367	-0.57353942	0.070901871	0.11646192	-0.021569149	-0.028554197	0.00020489767	-0.59948194	0.21934616	0.16547908	-0.013667665	-0.0089980669	0.097803845	-0.54730953	0.21608472	0.079833915	-0.098753107	-0.062187106	0.03539212	-0.63418433	0.27259778	0.10551133	0.045962074	0.37605395	-0.057797214	-0.18775649	0.36424261	0.24903297	0.039732775	0.38105164	0.066236799	-0.17428464	0.33890373	0.12355865	-0.1209732	0.76583402	-0.11703423	-0.1900865	0.75788143	0.25252017	-0.051999187	0.85394146	-0.045499195	-0.078994177	0.84087869	0.19498023	-0.24156325	0.90608209	0.059473249	-0.080305266	1.302678	-0.099449236	-0.13039818	1.3147079	0.23037433	-0.17496397	1.3548936	0.058569466	-0.23039192	0.97311501	-0.1567021	-0.25809886	0.9558867	0.29556571	-0.15202079	0.72967438	-0.21468149	-0.023529296	0.80941565	0.29938173
203	0.808	0.12042024	-0.059875709	0.059234759	-0.56358715	0.07391136	0.11914553	-0.021385245	-0.028722799	0.00019403076	-0.58770185	0.22299793	0.16681985	-0.0135767	-0.0090599188	0.097856466	-0.53542805	0.21971922	0.080970908	-0.098772816	-0.062046126	0.035351265	-0.62167325	0.27713699	0.10733594	0.048524187	0.37504587	-0.057833387	-0.17527134	0.36393805	0.24896587	0.043415333	0.37987475	0.066202724	-0.16214249	0.33908033	0.12343094	-0.11486319	0.76593174	-0.11731695	-0.18289134	0.75766843	0.25170137	-0.046270642	0.8539788	-0.045777409	-0.073480563	0.84124191	0.19477592	-0.23032444	0.90416325	0.05437536	-0.073027833	1.3030064	-0.099259659	-0.12343354	1.3150744	0.23043955	-0.16814067	1.3552814	0.05844113	-0.22229992	0.97302602	-0.15706107	-0.2528121	0.95700826	0.2955366	-0.14216355	0.72980003	-0.21401074	-0.020491342	0.80673441	0.30021947
204	0.812	0.12040707	-0.05992892	0.05929363	-0.55211837	0.077080519	0.12165234	-0.021203274	-0.028869994	0.00018386724	-0.57576765	0.22651646	0.16785943	-0.013554784	-0.0090915717	0.097875716	-0.52340699	0.22347186	0.081914876	-0.098801275	-0.061921533	0.035292205	-0.6093377	0.28116871	0.10882064	0.050888933	0.3742699	-0.057777936	-0.16270654	0.36388222	0.24884043	0.046713888	0.3791584	0.066363881	-0.14991944	0.33946235	0.12306257	-0.10871114	0.76614136	-0.11752144	-0.17535416	0.75768694	0.25068531	-0.040638822	0.85401263	-0.045980499	-0.068029834	0.841783	0.19462582	-0.2227451	0.90388081	0.052060579	-0.065784505	1.3034272	-0.099048523	-0.11662502	1.315556	0.23048992	-0.16137323	1.3558586	0.058334414	-0.21429721	0.97302915	-0.15747173	-0.24775271	0.9582363	0.295577	-0.13216436	0.73007985	-0.21324642	-0.017517377	0.80421256	0.30108158
205	0.816	0.12041625	-0.059987682	0.059368614	-0.53957673	0.08028415	0.12419537	-0.021000006	-0.028976715	0.0002093365	-0.56370324	0.22983077	0.16877609	-0.013489267	-0.0090998677	0.0979233	-0.5112331	0.22717971	0.082693669	-0.098812473	-0.061775657	0.035257281	-0.59701488	0.28474233	0.10991464	0.053313365	0.37374942	-0.057778612	-0.15001961	0.36412574	0.24872631	0.049338045	0.37879072	0.066589299	-0.13777199	0.34018611	0.1225772	-0.10253233	0.76644209	-0.11762133	-0.16774744	0.75793897	0.24964485	-0.035073597	0.85409689	-0.046104837	-0.062643277	0.84249717	0.19451892	-0.21727626	0.90456006	0.051337707	-0.058598293	1.3039443	-0.098824455	-0.10998128	1.31615	0.2305252	-0.15469089	1.356606	0.058243782	-0.20640554	0.97312076	-0.15801422	-0.24259438	0.9595512	0.29564593	-0.12212493	0.7305004	-0.21243948	-0.014615916	0.80184524	0.30197606
206	0.82	0.12045162	-0.060043688	0.059446757	-0.52632722	0.083461515	0.12702198	-0.020781884	-0.029033819	0.00027998454	-0.55151533	0.23291511	0.16965709	-0.013343262	-0.0091021242	0.098021	-0.49884804	0.23062216	0.083390843	-0.098800451	-0.061594054	0.035264888	-0.58456127	0.2879358	0.11066753	0.056020197	0.37345009	-0.057887547	-0.1372133	0.36467264	0.24862003	0.051080613	0.37860779	0.066756966	-0.12568084	0.34134119	0.12211599	-0.096272016	0.76683072	-0.1176399	-0.16060866	0.75836542	0.24896089	-0.029528145	0.85427607	-0.046152809	-0.057317101	0.84338211	0.19444192	-0.21200462	0.90544903	0.051044228	-0.051484257	1.3045617	-0.09858847	-0.10350897	1.31686	0.23055461	-0.14810958	1.3574797	0.058154636	-0.19867079	0.973304	-0.15875532	-0.23713998	0.96093101	0.29572742	-0.11210015	0.73105578	-0.21161651	-0.011788192	0.7996208	0.30292124
207	0.824	0.1204942	-0.060086163	0.059513921	-0.51256003	0.086587769	0.13021374	-0.020579526	-0.029042382	0.00037665178	-0.53919905	0.23577162	0.17051732	-0.013165996	-0.0091125056	0.098141699	-0.48620006	0.23364277	0.084110299	-0.098779653	-0.061382496	0.035305228	-0.57193197	0.29080719	0.11120108	0.058965149	0.37329821	-0.057988405	-0.12431066	0.36550232	0.24848612	0.052175954	0.37852602	0.066918255	-0.11358085	0.34291368	0.12172433	-0.089882162	0.76732263	-0.11763527	-0.15417511	0.75892474	0.24880539	-0.023979919	0.8545791	-0.046138506	-0.052041725	0.84443914	0.19438504	-0.20597838	0.90633968	0.050865976	-0.044441979	1.3052805	-0.098333454	-0.09720725	1.3176917	0.23058979	-0.14162068	1.3584378	0.058061093	-0.19110733	0.97359416	-0.15964548	-0.23143389	0.9623653	0.29583	-0.10209138	0.73174934	-0.21078352	-0.0090006038	0.7975455	0.30394746
